<?xml version="1.0" encoding="utf-8"?>
<!-- Generator: Adobe Illustrator 27.5.0, SVG Export Plug-In . SVG Version: 6.00 Build 0)  -->
<svg version="1.1" xmlns="http://www.w3.org/2000/svg" xmlns:xlink="http://www.w3.org/1999/xlink" x="0px" y="0px"
	 viewBox="0 0 500 500" style="enable-background:new 0 0 500 500;" xml:space="preserve">
<g id="BACKGROUND">
	<g>
		<rect style="fill:#E8F3FF;" width="500" height="500"/>
	</g>
	<circle style="fill:#FFFFFF;" cx="251.332" cy="144.345" r="122.722"/>
	<g>
		<path style="fill:none;stroke:#3FA9F5;stroke-miterlimit:10;" d="M462.144,160.387c0,2.107-1.708,3.816-3.816,3.816
			c-2.107,0-3.816-1.708-3.816-3.816c0-2.107,1.708-3.816,3.816-3.816C460.436,156.572,462.144,158.28,462.144,160.387z"/>
		<g>
			<path style="fill:none;stroke:#3FA9F5;stroke-miterlimit:10;" d="M41.408,148.248c3.59,0,3.59,4,7.181,4s3.59-4,7.181-4
				c3.591,0,3.591,4,7.183,4c3.589,0,3.589-4,7.179-4c3.592,0,3.592,4,7.185,4c3.595,0,3.595-4,7.19-4c3.595,0,3.595,4,7.19,4"/>
		</g>
		<g>
			<path style="fill:none;stroke:#3FA9F5;stroke-miterlimit:10;" d="M411.856,328.029c3.59,0,3.59,4,7.181,4s3.59-4,7.181-4
				c3.591,0,3.591,4,7.183,4c3.589,0,3.589-4,7.179-4c3.592,0,3.592,4,7.185,4c3.595,0,3.595-4,7.19-4c3.595,0,3.595,4,7.19,4"/>
		</g>
		<g>
			<path style="fill:none;stroke:#3FA9F5;stroke-miterlimit:10;" d="M375.873,88.316c3.59,0,3.59,4,7.181,4s3.59-4,7.181-4
				c3.591,0,3.591,4,7.183,4c3.589,0,3.589-4,7.179-4c3.593,0,3.593,4,7.185,4c3.595,0,3.595-4,7.19-4s3.595,4,7.19,4"/>
		</g>
		<g>
			<path style="fill:none;stroke:#3FA9F5;stroke-miterlimit:10;" d="M41.408,388.591c3.59,0,3.59,4,7.181,4s3.59-4,7.181-4
				c3.591,0,3.591,4,7.183,4c3.589,0,3.589-4,7.179-4c3.592,0,3.592,4,7.185,4c3.595,0,3.595-4,7.19-4c3.595,0,3.595,4,7.19,4"/>
		</g>
		<g>
			<line style="fill:none;stroke:#3FA9F5;stroke-miterlimit:10;" x1="97.308" y1="77.581" x2="97.308" y2="88.804"/>
			<line style="fill:none;stroke:#3FA9F5;stroke-miterlimit:10;" x1="102.92" y1="83.192" x2="91.696" y2="83.192"/>
		</g>
		<g>
			<line style="fill:none;stroke:#3FA9F5;stroke-miterlimit:10;" x1="431.388" y1="276.588" x2="431.388" y2="287.812"/>
			<line style="fill:none;stroke:#3FA9F5;stroke-miterlimit:10;" x1="437" y1="282.2" x2="425.776" y2="282.2"/>
		</g>
		<g>
			<line style="fill:none;stroke:#3FA9F5;stroke-miterlimit:10;" x1="86.084" y1="318.805" x2="86.084" y2="330.029"/>
			<line style="fill:none;stroke:#3FA9F5;stroke-miterlimit:10;" x1="91.696" y1="324.417" x2="80.472" y2="324.417"/>
		</g>
		<circle style="fill:none;stroke:#3FA9F5;stroke-miterlimit:10;" cx="41.408" cy="280.404" r="3.816"/>
		<path style="fill:none;stroke:#3FA9F5;stroke-miterlimit:10;" d="M404.833,55.524c0,2.107-1.708,3.816-3.816,3.816
			c-2.107,0-3.816-1.708-3.816-3.816c0-2.107,1.708-3.816,3.816-3.816C403.125,51.709,404.833,53.417,404.833,55.524z"/>
		<path style="fill:none;stroke:#3FA9F5;stroke-miterlimit:10;" d="M426.161,405.463c0,2.107-1.708,3.816-3.816,3.816
			s-3.816-1.708-3.816-3.816c0-2.107,1.708-3.816,3.816-3.816S426.161,403.356,426.161,405.463z"/>
	</g>
</g>
<g id="OBJECTS">
	<g>
		<g>
			<g>
				<path style="fill:#FFB6A6;" d="M180.083,117.168c0,0-4.167-5.999-5.88-6.416c-6.718-1.634-11.714,0.982-11.714,0.982
					s-4.53-1.896-11.029-2.199c-1.375-0.064-4.297,1.625-0.811,2.404c4.87,1.088,10.329,2.483,10.329,2.483l11.538,6.358
					L180.083,117.168z"/>
				<path style="fill:#FFB6A6;" d="M167.479,109.916c-1.566,0.049-2.526,0.221-2.526,0.221s-8.531-0.698-14.316-2.11
					c-1.298-0.317-3.982,0.629-0.85,1.567c3.931,1.177,12.152,3.633,13.884,3.957"/>
				<path style="fill:#FFB6A6;" d="M167.73,110.648c-1.566,0.049-2.614-2.043-2.614-2.043s-8.402-1.411-14.316-2.11
					c-1.251-0.148-3.999,0.566-0.867,1.504c3.931,1.177,12.147,3.102,13.878,3.425"/>
				<path style="fill:#FFB6A6;" d="M169.983,108.027c-1.852,1.135-5.538,0.372-5.538,0.372s-5.265-0.981-11.133-1.996
					c-1.242-0.215-4.572,1.188-1.494,2.292c3.863,1.385,12.503,3.505,14.214,3.921"/>
				<polygon style="fill:#FFB6A6;" points="180.083,117.168 183.292,122.005 174.773,127.49 172.515,120.778 				"/>
				<path style="fill:#FFB6A6;" d="M178.083,117.246c0,0-0.274-4.896-1.883-7.745c-1.608-2.848-3.453-6.075-3.8-7.326
					c-0.653-2.356-3.756,0.931-2.279,3.701c1.477,2.77-4.931,4.937-5.465,6.181C164.122,113.3,178.083,117.246,178.083,117.246z"/>
			</g>
			<path style="fill:#FFD752;" d="M193.708,171.428c-2.953-0.632-5.346-2.796-6.267-5.678l-16.637-42.497l12.94-3.114l14.115,25.791
				l13.19-17.643l13.92,8.662l-23.07,31.693c-1.984,2.334-5.077,3.409-8.08,2.808C193.781,171.443,193.744,171.435,193.708,171.428z
				"/>
			<g>
				<path style="fill:#192342;" d="M232.104,72.234c0,0-3.696,12.901-6.732,38.596c0,0,25.728,12.999,50.511-1.298
					c0,0,1.817-37.546-15.239-47.573L232.104,72.234z"/>
				<g>
					<path style="fill:#FFFFFF;" d="M257.82,111.91c0,0-8.864-4.726-22.268-0.83c0,0,1.581,5.08,1.798,5.172
						c0.217,0.092,12.386,2.697,12.386,2.697L257.82,111.91z"/>
				</g>
				<path style="fill:#FFFFFF;" d="M270.928,90.545c0,1.118-0.906,2.024-2.024,2.024c-1.118,0-2.024-0.906-2.024-2.024
					c0-1.118,0.906-2.024,2.024-2.024C270.022,88.521,270.928,89.427,270.928,90.545z"/>
				<g>
					<g>
						<path style="fill:#FFD752;" d="M272.549,188.721c-1.057-3.661,2.697-13.491,4.707-20.301c0.973-2.216,1.725-4.549,2.208-6.982
							c0.004-0.01,0.011-0.031,0.011-0.031l-0.006,0c0.423-2.14,0.655-4.348,0.655-6.612v-1.246
							c0-18.737-13.154-33.927-31.891-33.927h0c-18.737,0-33.927,15.189-33.927,33.927v1.246c0,1.396,0.11,2.764,0.274,4.116
							l-0.017-0.001c0,0,0.011,0.032,0.03,0.086c0.538,4.344,1.875,8.438,3.895,12.113c2.136,7.1,7.548,15.153,7.123,17.77
							c-0.814,5.013-7.401,21.395-7.401,21.395c29.349,16.107,63.992-1.378,63.992-1.378S274.232,194.552,272.549,188.721z"/>
						<path style="fill:#FFB6A6;" d="M254.227,110.777l1.081-34.935H239.93v28.89c0,4.22-1.987,8.176-5.343,10.734
							c-3.966,3.023-3.084,1.249-10.958,4.155c0,0,11.346,13.841,45.083,0c0,0-4.41,1.092-13.403-5.951
							C254.471,113.014,254.227,111.841,254.227,110.777z"/>
						<path style="fill:#192342;" d="M254.369,106.209c0,0-9.909-4.529-11.644-6.12c0,0,2.734,6.287,11.548,9.066L254.369,106.209z"
							/>
						<path style="fill:#FFD752;" d="M283.866,125.773c-8.997-6.65-22.669-8.263-22.669-8.263
							c-18.203,2.897-30.498-1.053-30.498-1.053s-14.84,4.696-19.65,11.83l38.134,46.865L283.866,125.773z"/>
						<path style="fill:#FFB6A6;" d="M267.69,81.886c1.214-12.954-6.54-22.501-16.716-21.628
							c-10.176,0.873-17.721,10.633-16.851,21.801c0.214,2.745,0.921,5.317,2.009,7.626c7.59,15.613,15.425,16.963,19.295,17.975
							c2.834,0.741,4.838-0.661,5.364-1.216C271.782,94.858,267.69,81.886,267.69,81.886z"/>
						<path style="fill:#192342;" d="M242.049,83.19c0,0-4.966-2.166-6.04,1.557c-1.428,4.954,1.671,7.653,4.12,7.823l-0.199,8.95
							l-7.115-12.561c-2.836-5.351-2.29-10.817-0.577-17.238l0,0c2.921-12.003,17.744-12.098,17.744-12.098
							c2.327-0.267,5.097,0.406,7.359,1.011c6.715,1.797,8.347,6.728,8.347,6.728S261.5,75.843,242.049,83.19z"/>
						<path style="fill:#192342;" d="M238.642,85.047c0.287-0.099,0.586-0.094,0.895-0.085c0.304,0.033,0.616,0.115,0.904,0.276
							c0.299,0.146,0.549,0.401,0.748,0.684c0.208,0.287,0.291,0.629,0.364,0.956l0.064,0.286l-0.277,0.195
							c-0.387,0.272-0.82,0.667-0.954,0.978c-0.062,0.142-0.07,0.306,0.086,0.51c0.124,0.225,0.364,0.386,0.591,0.598
							c-0.308-0.001-0.608-0.067-0.918-0.228c-0.301-0.143-0.593-0.582-0.529-1.017c0.037-0.422,0.251-0.727,0.446-0.994
							c0.221-0.259,0.442-0.466,0.725-0.669l-0.213,0.48c-0.064-0.445-0.235-0.824-0.572-1.154
							C239.658,85.545,239.187,85.263,238.642,85.047z"/>
						<g>
							<g>
								<path style="fill:#192342;" d="M250.977,85.219c0,0.625-0.507,1.132-1.132,1.132s-1.132-0.507-1.132-1.132
									c0-0.625,0.507-1.132,1.132-1.132S250.977,84.594,250.977,85.219z"/>
								<path style="fill:#192342;" d="M252.829,85.239c-0.559-0.228-1.034-0.426-1.437-0.508c-0.205-0.029-0.368-0.051-0.505-0.008
									c-0.069,0.008-0.129,0.025-0.193,0.047l-0.307,0.127c-0.6,0.202-1.191,0.252-1.761,0.175
									c-0.567-0.072-1.12-0.245-1.616-0.606c1.085-0.492,2.062-0.667,2.865-0.972l0.438-0.134
									c0.189-0.039,0.393-0.077,0.586-0.052c0.389,0.042,0.748,0.167,1.01,0.379"/>
							</g>
							<g>
								<path style="fill:#192342;" d="M265.089,84.432c0.03,0.572-0.409,1.061-0.982,1.091c-0.573,0.03-1.061-0.41-1.091-0.982
									c-0.03-0.572,0.41-1.061,0.982-1.091C264.57,83.42,265.059,83.86,265.089,84.432z"/>
								<path style="fill:#192342;" d="M263.808,82.801l0.395-0.144c0.171-0.045,0.356-0.09,0.534-0.076
									c0.359,0.02,0.693,0.116,0.943,0.298c0.51,0.339,0.82,0.824,0.916,1.378c-0.523-0.182-0.967-0.34-1.34-0.396
									c-0.189-0.016-0.339-0.029-0.462,0.017c-0.063,0.011-0.117,0.029-0.174,0.052l-0.275,0.131
									c-0.54,0.214-1.078,0.288-1.604,0.245c-0.523-0.039-1.038-0.171-1.509-0.477"/>
							</g>
							<path style="fill:#192342;" d="M248.958,91.777c0,0,2.647,3.307,9.487,3.665c0,0-3.111,3.218-6.686,1.669
								S248.958,91.777,248.958,91.777z"/>
							<path style="fill:#D65685;" d="M249.461,94.903c-0.026,0-0.05,0.005-0.077,0.006c0.404,0.836,1.117,1.657,2.374,2.202
								c0.52,0.225,1.028,0.341,1.521,0.389C253.077,96.042,251.455,94.903,249.461,94.903z"/>
							<path style="fill:#192342;" d="M258.116,87.276c0.62-0.346,1.303-0.536,2.039-0.554c0.371-0.011,0.756,0.033,1.173,0.216
								c0.411,0.179,0.836,0.653,0.862,1.223c-0.057,1.077-0.676,1.584-1.197,2.049c-0.553,0.448-1.168,0.785-1.852,0.979
								c0.411-0.574,0.841-1.083,1.223-1.591c0.37-0.484,0.732-1.078,0.703-1.374c0.003-0.117-0.057-0.229-0.239-0.348
								c-0.179-0.133-0.468-0.204-0.758-0.284C259.474,87.455,258.81,87.387,258.116,87.276z"/>
						</g>
					</g>
				</g>
				<path style="fill:#FFFFFF;" d="M241.462,92.569c0,1.118-0.906,2.024-2.024,2.024c-1.118,0-2.024-0.906-2.024-2.024
					c0-1.118,0.906-2.024,2.024-2.024C240.556,90.545,241.462,91.451,241.462,92.569z"/>
				<path style="fill:#192342;" d="M257.493,79.952l-0.69-0.887c5.254-4.088,7.643-11.738,7.666-11.814l1.076,0.328
					C265.446,67.906,263.034,75.641,257.493,79.952z"/>
				<path style="fill:#192342;" d="M224.617,110.543l-1.122-0.07c2.051-32.788,11.576-43.885,11.981-44.341l0.842,0.745
					C236.221,66.986,226.639,78.209,224.617,110.543z"/>
				<g>
					<path style="fill:#FFFFFF;" d="M257.82,111.91c0,0-6.263,5.202-11.708,6.723c0,0,8.673,6.539,9.341,8.607
						c0.667,2.068,6.189-9.647,6.189-9.647S261.065,114.562,257.82,111.91z"/>
				</g>
				<g>
					<path style="fill:#FFFFFF;" d="M235.552,111.08c0,0,5.239,5.636,10.559,7.554c0,0-9.125,5.885-9.941,7.899
						c-0.816,2.014-5.472-10.076-5.472-10.076S232.123,113.486,235.552,111.08z"/>
				</g>
				<path style="opacity:0.17;fill:#99032E;" d="M240.972,118.628c0.276-0.443,0.785-0.666,1.294-0.568
					c1.227,0.235,2.528,0.437,3.865,0.574c1.558,0.16,3.123,0.093,4.586-0.094c0.516-0.066,1.018,0.178,1.272,0.637l2.902,5.247
					c0.516,0.933,0.768,1.991,0.729,3.059l0,0l-9.277-7.241l-10.435,6.508L240.972,118.628z"/>
			</g>
			<path style="fill:none;stroke:#192342;stroke-miterlimit:10;" d="M150.638,109.65c0,0,5.493,0.317,11.851,2.084
				c0,0,8.899-3.394,11.578,1.816"/>
		</g>
		<g>
			<ellipse style="opacity:0.25;fill:#333487;" cx="260.274" cy="448.479" rx="145.148" ry="25.881"/>
			<g>
				
					<rect x="122.572" y="155.167" transform="matrix(6.123234e-17 -1 1 6.123234e-17 -15.7546 305.805)" style="fill:#3FA9F5;" width="44.906" height="11.225"/>
				
					<rect x="133.797" y="155.167" transform="matrix(6.123234e-17 -1 1 6.123234e-17 -4.5296 317.03)" style="fill:#D65685;" width="44.906" height="11.225"/>
				
					<rect x="145.022" y="155.167" transform="matrix(6.123234e-17 -1 1 6.123234e-17 6.6954 328.255)" style="fill:#FFD752;" width="44.906" height="11.225"/>
				<g>
					<rect x="173.088" y="138.327" style="fill:#192342;" width="11.225" height="44.906"/>
				</g>
				<g>
					<path style="fill:#FFFFFF;" d="M147.445,145.007c0,1.337-1.083,2.42-2.42,2.42s-2.42-1.083-2.42-2.42s2.42-3.745,2.42-3.745
						S147.445,143.671,147.445,145.007z"/>
				</g>
				<g>
					<path style="fill:#FFFFFF;" d="M158.67,145.007c0,1.337-1.083,2.42-2.42,2.42s-2.42-1.083-2.42-2.42s2.42-3.745,2.42-3.745
						S158.67,143.671,158.67,145.007z"/>
				</g>
				<g>
					<path style="fill:#FFFFFF;" d="M169.895,145.007c0,1.337-1.083,2.42-2.42,2.42c-1.336,0-2.42-1.083-2.42-2.42
						s2.42-3.745,2.42-3.745S169.895,143.671,169.895,145.007z"/>
				</g>
				<g>
					<path style="fill:#FFFFFF;" d="M181.12,145.007c0,1.337-1.083,2.42-2.42,2.42s-2.42-1.083-2.42-2.42s2.42-3.745,2.42-3.745
						S181.12,143.671,181.12,145.007z"/>
				</g>
			</g>
			<g>
				<g>
					<path style="fill:#5E5FBF;" d="M141.506,448.479h-4.06c-2.444,0-4.425-1.981-4.425-4.425v-4.982
						c0-2.444,1.981-4.425,4.425-4.425h4.06c2.444,0,4.425,1.981,4.425,4.425v4.982C145.931,446.498,143.95,448.479,141.506,448.479
						z"/>
				</g>
				<g>
					<rect x="118.267" y="232.702" style="fill:#3759BF;" width="284.014" height="19.365"/>
				</g>
				<g>
					<path style="fill:#6A8FE6;" d="M402.505,237.313H118.043c-0.895,0-1.62-0.725-1.62-1.62v-38.031h287.702v38.031
						C404.125,236.588,403.4,237.313,402.505,237.313z"/>
				</g>
				<g>
					<path style="fill:#6A8FE6;" d="M118.043,240.079h284.462c0.895,0,1.62,0.725,1.62,1.62v40.142c0,1.381-1.119,2.5-2.5,2.5
						H118.923c-1.381,0-2.5-1.119-2.5-2.5v-40.142C116.423,240.805,117.148,240.079,118.043,240.079z"/>
				</g>
				<rect x="160.703" y="240.079" style="opacity:0.25;fill:#333487;" width="195.49" height="44.262"/>
				<g>
					<polygon style="fill:#A8C2F7;" points="404.125,197.662 116.423,197.662 139.309,181.986 381.24,181.986 					"/>
				</g>
				<g>
					<g>
						<path style="fill:#A8C2F7;" d="M162.433,182.908h-17.424v-16.598h17.424c1.072,0,1.94,0.869,1.94,1.94v12.718
							C164.373,182.039,163.505,182.908,162.433,182.908z"/>
					</g>
					<g>
						<path style="fill:#6A8FE6;" d="M145.931,174.609c0,4.583-0.413,8.299-0.922,8.299c-0.509,0-0.922-3.716-0.922-8.299
							c0-4.583,0.413-8.299,0.922-8.299C145.518,166.309,145.931,170.025,145.931,174.609z"/>
					</g>
				</g>
				<g>
					<g>
						<path style="fill:#A8C2F7;" d="M358.115,182.908h17.425v-16.598h-17.425c-1.071,0-1.94,0.869-1.94,1.94v12.718
							C356.175,182.039,357.044,182.908,358.115,182.908z"/>
					</g>
					<g>
						<path style="fill:#6A8FE6;" d="M374.617,174.609c0,4.583,0.413,8.299,0.922,8.299c0.509,0,0.922-3.716,0.922-8.299
							c0-4.583-0.413-8.299-0.922-8.299C375.03,166.309,374.617,170.025,374.617,174.609z"/>
					</g>
				</g>
				<rect x="162.529" y="166.309" style="fill:#FFFFFF;" width="195.49" height="16.598"/>
				<g>
					<polygon style="fill:#6A8FE6;" points="287.016,194.047 233.533,194.047 237.787,191.133 282.761,191.133 					"/>
				</g>
				<g>
					<path style="fill:#7DA9FA;" d="M144.087,284.341v123.48c0,0.665-0.128,1.324-0.378,1.94l-11.882,29.31
						c-0.751,1.852,0.612,3.875,2.61,3.875h6.831c1.147,0,2.18-0.695,2.61-1.758l12.741-31.427c0.25-0.616,0.378-1.275,0.378-1.94
						v-123.48H144.087z"/>
				</g>
				<g>
					<path style="fill:#ADD5FF;" d="M156.074,401.451l-2.292,1.139c-2.041,1.014-4.439,1.014-6.48,0l-2.292-1.139v6.455l2.292-1.139
						c2.041-1.014,4.439-1.014,6.48,0l2.292,1.139V401.451z"/>
				</g>
				<g>
					<path style="fill:#ADD5FF;" d="M141.619,441.775h-7.425c-0.751,0-1.359-0.609-1.359-1.359v-0.048
						c0-0.751,0.609-1.359,1.359-1.359h7.425c0.751,0,1.359,0.609,1.359,1.359v0.048
						C142.978,441.167,142.369,441.775,141.619,441.775z"/>
				</g>
				<g>
					<rect x="144.087" y="284.341" style="fill:#5E5FBF;" width="12.91" height="7.46"/>
				</g>
				<g>
					<path style="fill:#5E5FBF;" d="M378.34,448.479h4.06c2.444,0,4.425-1.981,4.425-4.425v-4.982c0-2.444-1.981-4.425-4.425-4.425
						h-4.06c-2.444,0-4.425,1.981-4.425,4.425v4.982C373.915,446.498,375.896,448.479,378.34,448.479z"/>
				</g>
				<g>
					<path style="fill:#7DA9FA;" d="M375.759,284.341v123.48c0,0.665,0.128,1.324,0.378,1.94l11.883,29.31
						c0.751,1.852-0.612,3.875-2.611,3.875h-6.831c-1.147,0-2.179-0.695-2.61-1.758l-12.741-31.427
						c-0.25-0.616-0.378-1.275-0.378-1.94v-123.48H375.759z"/>
				</g>
				<g>
					<path style="fill:#ADD5FF;" d="M363.772,401.451l2.293,1.139c2.041,1.014,4.439,1.014,6.48,0l2.293-1.139v6.455l-2.293-1.139
						c-2.041-1.014-4.439-1.014-6.48,0l-2.293,1.139V401.451z"/>
				</g>
				<g>
					<path style="fill:#ADD5FF;" d="M378.227,441.775h7.425c0.751,0,1.359-0.609,1.359-1.359v-0.048
						c0-0.751-0.609-1.359-1.359-1.359h-7.425c-0.751,0-1.359,0.609-1.359,1.359v0.048
						C376.868,441.167,377.477,441.775,378.227,441.775z"/>
				</g>
				<g>
					<rect x="362.85" y="284.341" style="fill:#5E5FBF;" width="12.91" height="7.46"/>
				</g>
				<path style="opacity:0.1;fill:#333487;" d="M358.019,182.908h-195.49v-6.713l6.077,0.36
					c61.034,3.617,122.228,3.619,183.262,0.004l6.151-0.364V182.908z"/>
				<g>
					<g>
						<path style="fill:#A8C2F7;" d="M403.509,197.662h-46.045l0.637-40.555c0.135-1.473,0.893-2.561,1.785-2.561h39.969
							c0.891,0,1.65,1.088,1.785,2.561L403.509,197.662z"/>
					</g>
					<g>
						<polygon style="fill:#2C479E;" points="397.941,178.376 363.031,178.376 363.395,158.508 396.345,158.508 						"/>
					</g>
					<polygon style="opacity:0.25;fill:#333487;" points="396.443,159.725 396.345,158.508 363.395,158.508 363.297,159.725 					
						"/>
					<g>
						<polygon style="fill:#3E6BAD;" points="367.527,176.835 382.436,176.835 393.445,160.78 377.588,160.78 						"/>
					</g>
				</g>
				<path style="fill:#FFFFFF;" d="M358.019,410.957V237.313h-195.49v173.644c0,16.805-3.228,33.454-9.508,49.042h0h214.506l0,0
					C361.247,444.411,358.019,427.762,358.019,410.957z"/>
				<path style="opacity:0.1;fill:#333487;" d="M153.591,458.533c-0.19,0.488-0.374,0.979-0.57,1.465l0,0h214.506l0,0
					c-0.196-0.486-0.38-0.977-0.57-1.465H153.591z"/>
				
					<rect x="162.529" y="237.313" transform="matrix(-1 -1.224647e-16 1.224647e-16 -1 520.5484 476.47)" style="opacity:0.25;fill:#333487;" width="195.49" height="1.844"/>
				<g>
					<path style="fill:#D7E6F7;" d="M337.724,434.345c-1.285-7.542-1.947-15.203-1.947-22.947V263.949H184.77v147.449
						c0,7.744-0.662,15.405-1.947,22.947H337.724z"/>
				</g>
			</g>
			<g>
				<g>
					<polygon style="fill:#2C479E;" points="387.243,181.167 387.358,182.632 391.626,182.632 391.436,181.167 					"/>
				</g>
				<g>
					<polygon style="fill:#2C479E;" points="373.994,186.281 374.123,184.646 369.751,184.646 369.539,186.281 					"/>
				</g>
				<g>
					<polygon style="fill:#2C479E;" points="370.012,182.632 374.28,182.632 374.395,181.167 370.202,181.167 					"/>
				</g>
				<g>
					<polygon style="fill:#2C479E;" points="387.516,184.646 387.644,186.281 392.099,186.281 391.887,184.646 					"/>
				</g>
				<g>
					<polygon style="fill:#2C479E;" points="381.685,182.632 385.621,182.632 385.507,181.167 381.685,181.167 					"/>
				</g>
				<g>
					<polygon style="fill:#2C479E;" points="376.017,182.632 379.953,182.632 379.953,181.167 376.132,181.167 					"/>
				</g>
				<g>
					<polygon style="fill:#2C479E;" points="386.065,188.294 381.685,188.294 381.685,189.93 386.193,189.93 					"/>
				</g>
				<g>
					<polygon style="fill:#2C479E;" points="394.804,193.684 398.506,193.684 398.322,191.943 394.578,191.943 					"/>
				</g>
				<g>
					<polygon style="fill:#2C479E;" points="375.731,186.281 379.953,186.281 379.953,184.646 375.859,184.646 					"/>
				</g>
				<g>
					<polygon style="fill:#2C479E;" points="392.36,188.294 387.802,188.294 387.93,189.93 392.572,189.93 					"/>
				</g>
				<g>
					<polygon style="fill:#2C479E;" points="385.779,184.646 381.685,184.646 381.685,186.281 385.907,186.281 					"/>
				</g>
				<g>
					<polygon style="fill:#2C479E;" points="379.953,189.93 379.953,188.294 375.573,188.294 375.445,189.93 					"/>
				</g>
				<g>
					<polygon style="fill:#2C479E;" points="392.833,191.943 388.088,191.943 388.224,193.684 393.059,193.684 					"/>
				</g>
				<g>
					<polygon style="fill:#2C479E;" points="393.372,182.632 397.338,182.632 397.184,181.167 393.182,181.167 					"/>
				</g>
				<g>
					<polygon style="fill:#2C479E;" points="373.708,189.93 373.837,188.294 369.278,188.294 369.066,189.93 					"/>
				</g>
				<polygon style="fill:#FFD752;" points="368.457,181.167 363.789,181.167 363.634,182.632 368.267,182.632 				"/>
				<polygon style="fill:#D65685;" points="367.533,188.294 363.036,188.294 362.863,189.93 367.321,189.93 				"/>
				<g>
					<polygon style="fill:#45B886;" points="368.006,184.646 363.422,184.646 363.249,186.281 367.794,186.281 					"/>
				</g>
				<g>
					<polygon style="fill:#2C479E;" points="379.953,191.943 375.287,191.943 375.151,193.684 379.953,193.684 					"/>
				</g>
				<g>
					<polygon style="fill:#2C479E;" points="373.414,193.684 373.551,191.943 368.805,191.943 368.58,193.684 					"/>
				</g>
				<g>
					<polygon style="fill:#2C479E;" points="386.351,191.943 381.685,191.943 381.685,193.684 386.488,193.684 					"/>
				</g>
				<g>
					<polygon style="fill:#2C479E;" points="393.844,186.281 397.724,186.281 397.551,184.646 393.632,184.646 					"/>
				</g>
				<g>
					<polygon style="fill:#2C479E;" points="394.318,189.93 398.109,189.93 397.937,188.294 394.105,188.294 					"/>
				</g>
			</g>
			<g>
				<g>
					<g>
						<g>
							<g>
								<g>
									<rect x="183.829" y="248.884" style="fill:#192342;" width="0.458" height="10.868"/>
								</g>
							</g>
							<g>
								<g>
									<rect x="171.771" y="261.752" style="fill:#192342;" width="10.868" height="0.458"/>
								</g>
							</g>
						</g>
					</g>
					<g>
						<g>
							<g>
								<g>
									<rect x="336.261" y="248.884" style="fill:#192342;" width="0.458" height="10.868"/>
								</g>
							</g>
							<g>
								<g>
									<rect x="337.909" y="261.752" style="fill:#192342;" width="10.868" height="0.458"/>
								</g>
							</g>
						</g>
					</g>
				</g>
				<g>
					<g>
						<g>
							<g>
								<g>
									<polygon style="fill:#192342;" points="181.173,438.999 179.138,449.867 179.596,449.867 181.631,438.999 									"/>
								</g>
							</g>
							<g>
								<g>
									<rect x="169.114" y="436.541" style="fill:#192342;" width="10.868" height="0.458"/>
								</g>
							</g>
						</g>
					</g>
				</g>
				<g>
					<g>
						<g>
							<g>
								<g>
									<polygon style="fill:#192342;" points="339.273,438.999 341.308,449.867 340.85,449.867 338.815,438.999 									"/>
								</g>
							</g>
							<g>
								<g>
									<rect x="340.463" y="436.541" style="fill:#192342;" width="10.868" height="0.458"/>
								</g>
							</g>
						</g>
					</g>
				</g>
			</g>
			<g>
				<g>
					<rect x="192.494" y="272.919" style="fill:#A8C2F7;" width="62.907" height="46.451"/>
				</g>
				<g>
					<polygon style="fill:#6A8FE6;" points="239.273,297.811 223.948,310.025 208.622,297.811 192.494,310.665 192.494,319.37 
						212.223,319.37 235.672,319.37 255.401,319.37 255.401,310.665 					"/>
				</g>
			</g>
			<g>
				<g>
					<rect x="263.309" y="272.919" style="fill:#A8C2F7;" width="62.907" height="46.451"/>
				</g>
				<g>
					<polygon style="fill:#6A8FE6;" points="310.089,297.811 294.763,310.025 279.438,297.811 263.309,310.665 263.309,319.37 
						283.039,319.37 306.487,319.37 326.217,319.37 326.217,310.665 					"/>
				</g>
			</g>
			<g>
				<g>
					<rect x="192.494" y="325.43" style="fill:#A8C2F7;" width="62.907" height="46.451"/>
				</g>
				<g>
					<polygon style="fill:#6A8FE6;" points="239.273,350.323 223.948,362.537 208.622,350.323 192.494,363.177 192.494,371.881 
						212.223,371.881 235.672,371.881 255.401,371.881 255.401,363.177 					"/>
				</g>
			</g>
			<g>
				<g>
					<rect x="263.309" y="325.43" style="fill:#A8C2F7;" width="62.907" height="46.451"/>
				</g>
				<g>
					<polygon style="fill:#6A8FE6;" points="310.089,350.323 294.763,362.537 279.438,350.323 263.309,363.177 263.309,371.881 
						283.039,371.881 306.487,371.881 326.217,371.881 326.217,363.177 					"/>
				</g>
			</g>
			<g>
				<g>
					<rect x="192.494" y="377.942" style="fill:#A8C2F7;" width="62.907" height="46.451"/>
				</g>
				<g>
					<polygon style="fill:#6A8FE6;" points="239.273,402.834 223.948,415.049 208.622,402.834 192.494,415.689 192.494,424.393 
						212.223,424.393 235.672,424.393 255.401,424.393 255.401,415.689 					"/>
				</g>
			</g>
			<g>
				<g>
					<rect x="263.309" y="377.942" style="fill:#A8C2F7;" width="62.907" height="46.451"/>
				</g>
				<g>
					<polygon style="fill:#6A8FE6;" points="310.089,402.834 294.763,415.049 279.438,402.834 263.309,415.689 263.309,424.393 
						283.039,424.393 306.487,424.393 326.217,424.393 326.217,415.689 					"/>
				</g>
			</g>
			<g>
				<path style="fill:#D65685;" d="M299.964,287.669c0,2.872-2.328,5.201-5.201,5.201c-2.872,0-5.2-2.328-5.2-5.201
					s2.328-5.2,5.2-5.2C297.635,282.469,299.964,284.797,299.964,287.669z"/>
				<path style="fill:#D65685;" d="M230.193,287.669c0,2.872-2.328,5.201-5.201,5.201s-5.2-2.328-5.2-5.201s2.328-5.2,5.2-5.2
					S230.193,284.797,230.193,287.669z"/>
			</g>
			<g>
				<path style="fill:#D65685;" d="M299.964,341.238c0,2.872-2.328,5.2-5.201,5.2c-2.872,0-5.2-2.328-5.2-5.2s2.328-5.201,5.2-5.201
					C297.635,336.037,299.964,338.366,299.964,341.238z"/>
				<path style="fill:#D65685;" d="M230.193,341.238c0,2.872-2.328,5.2-5.201,5.2s-5.2-2.328-5.2-5.2s2.328-5.201,5.2-5.201
					S230.193,338.366,230.193,341.238z"/>
			</g>
			<g>
				<path style="fill:#D65685;" d="M299.964,392.771c0,2.872-2.328,5.2-5.201,5.2c-2.872,0-5.2-2.328-5.2-5.2
					c0-2.872,2.328-5.201,5.2-5.201C297.635,387.57,299.964,389.898,299.964,392.771z"/>
				<path style="fill:#D65685;" d="M230.193,392.771c0,2.872-2.328,5.2-5.201,5.2s-5.2-2.328-5.2-5.2c0-2.872,2.328-5.201,5.2-5.201
					S230.193,389.898,230.193,392.771z"/>
			</g>
		</g>
		<g>
			<path style="opacity:0.1;fill:#333487;" d="M358.086,171.187c-0.171,1.585-11.634,1.65-25.604,0.145
				c-13.97-1.505-25.157-4.009-24.986-5.594c0.171-1.585,11.634-1.65,25.604-0.145C347.07,167.097,358.257,169.602,358.086,171.187z
				"/>
			<g>
				<path style="fill:#FFB6A6;" d="M349.594,162.685c0,0,6.779-8.81,7.759-11.402c1.25-3.306,10.39-1.012,15.382-1.902
					c2.146-0.382,2.191,3.402-3.627,3.859s-8.045,0.675-8.045,0.675s-3.688,6.194-3.928,9.068c-0.27,3.238,1.517,4.21,2.977,6.099
					c1.46,1.889,2.315,4.972,0.666,5.067c-1.649,0.094-4.033-3.705-6.732-3.367c-1.345,0.168-10.532-0.932-10.532-0.932
					L349.594,162.685z"/>
			</g>
			<polygon style="fill:#FFD752;" points="283.866,125.773 316.887,151.574 312.969,149.637 350.895,160.844 347.083,170.606 
				309.669,166.178 307.66,165.92 305.75,164.241 270.102,140.059 			"/>
		</g>
		<line style="fill:none;stroke:#192342;stroke-miterlimit:10;" x1="214.368" y1="151.513" x2="219.615" y2="143.541"/>
		<line style="fill:none;stroke:#192342;stroke-miterlimit:10;" x1="275.545" y1="141.618" x2="279.466" y2="146.411"/>
	</g>
</g>
</svg>
